Coordinates
version=1
nRows=9
nColumns=24
inDegrees=yes

Units are S.I. units (second, meters, Newtons, ...)
Angles are in degrees.

endheader
time	pelvis_tilt	pelvis_list	pelvis_rotation	pelvis_tx	pelvis_ty	pelvis_tz	hip_flexion_r	hip_adduction_r	hip_rotation_r	knee_angle_r	ankle_angle_r	subtalar_angle_r	mtp_angle_r	hip_flexion_l	hip_adduction_l	hip_rotation_l	knee_angle_l	ankle_angle_l	subtalar_angle_l	mtp_angle_l	lumbar_extension	lumbar_bending	lumbar_rotation
      1.19150000	     -1.17654457	      6.97041936	     -6.82021118	      0.20763298	      1.00664163	      0.25451037	     13.32867460	    -10.13594197	      0.52567963	    -65.50616120	     -9.10359590	     -9.43335392	     10.57613460	      7.89394052	     11.49469673	      4.75702150	    -14.87954605	      6.67596207	    -16.91452343	     -3.66340985	    -11.18833526	     -2.41437781	      0.80782545
      1.19566667	     -1.17939656	      6.80067463	     -6.81906885	      0.21260736	      1.00750794	      0.25438376	     13.76814533	     -9.89160328	      0.51496576	    -65.34820623	     -8.02168406	     -9.71843170	     10.47356955	      7.34936000	     11.35735782	      4.89004916	    -14.43642060	      6.59679532	    -17.02003120	     -3.69319457	    -11.19851988	     -2.14555215	      0.55773080
      1.19983333	     -1.17180570	      6.62617391	     -6.80835321	      0.21757498	      1.00838275	      0.25425535	     14.18302761	     -9.64238448	      0.48932538	    -65.13252784	     -6.99721592	    -10.02473025	     10.34111914	      6.78878943	     11.21446666	      5.03018646	    -13.98214924	      6.50814238	    -17.11850883	     -3.72925483	    -11.22198003	     -1.87469492	      0.30999086
      1.20400000	     -1.16329082	      6.43365703	     -6.78097065	      0.22254244	      1.00928066	      0.25411705	     14.57355007	     -9.37130892	      0.44545775	    -64.84469334	     -6.04022147	    -10.35746322	     10.17874948	      6.22337572	     11.05085694	      5.17549100	    -13.52493010	      6.41144204	    -17.20791896	     -3.77068349	    -11.24954039	     -1.58367974	      0.06244517
      1.20816667	     -1.17652121	      6.27352899	     -6.72890449	      0.22749270	      1.01009028	      0.25393598	     14.98892264	     -9.14526254	      0.37204482	    -64.53049534	     -5.11224986	    -10.70638545	      9.85886739	      5.68451488	     10.92199812	      5.35384603	    -13.06251774	      6.26599797	    -17.33136065	     -3.84449106	    -11.24924692	     -1.31784706	     -0.24437852
      1.21233333	     -1.16393949	      6.08994251	     -6.68508876	      0.23243910	      1.01095108	      0.25379339	     15.35600439	     -8.88383085	      0.31267988	    -64.14312558	     -4.23989330	    -11.04029957	      9.52240081	      5.11556746	     10.76391875	      5.49919854	    -12.59753204	      6.15272205	    -17.40781234	     -3.91876076	    -11.28617335	     -1.03731501	     -0.48465892
      1.21650000	     -1.22441266	      5.89035878	     -6.63767267	      0.23735595	      1.01168888	      0.25368291	     15.79231460	     -8.58198914	      0.26950132	    -63.70822490	     -3.39868936	    -11.38104675	      9.45000683	      4.65763680	     10.56939897	      5.55883420	    -12.20151179	      6.09859039	    -17.37276521	     -3.93676542	    -11.24650510	     -0.76598522	     -0.55616101
      1.22066667	     -1.18776231	      5.71047292	     -6.59042810	      0.24230983	      1.01255640	      0.25353908	     16.10959519	     -8.32456022	      0.20987337	    -63.21948280	     -2.57537797	    -11.65952691	      5.88951032	      4.03293231	     10.41967112	      5.77361664	    -11.66408072	      5.87353712	    -17.60090824	     -4.59564987	    -11.30531877	     -0.49051973	     -0.81751438
      1.22483333	     -1.22422445	      5.50913697	     -6.49718092	      0.24722268	      1.01329409	      0.25337829	     16.48163083	     -8.03725005	      0.11639808	    -62.67109049	     -1.82932901	    -11.98565712	      5.85794091	      3.54373331	     10.22677538	      5.89180396	    -11.25995127	      5.84715228	    -17.53429412	     -4.60014193	    -11.28322601	     -0.17169711	     -1.10698954
